<?xml version="1.0" standalone="no"?><!DOCTYPE svg PUBLIC "-//W3C//DTD SVG 1.1//EN" "http://www.w3.org/Graphics/SVG/1.1/DTD/svg11.dtd"><svg t="1720709782242" class="icon" viewBox="0 0 1068 1024" version="1.1" xmlns="http://www.w3.org/2000/svg" p-id="5326" xmlns:xlink="http://www.w3.org/1999/xlink" width="208.59375" height="200"><path d="M817.117469 348.739286a16.43222 16.43222 0 0 0-2.907577 19.516015c18.062226 32.908494 28.326856 70.707006 28.326856 110.884444a230.844055 230.844055 0 0 1-56.697767 151.810805 16.520328 16.520328 0 0 0-1.850277 18.987364l40.441764 70.1343a16.43222 16.43222 0 0 0 16.652491 8.017867c6.167589-0.792976 12.467341-1.233518 18.899256-1.233518 72.381065 0.528651 132.162627 61.675893 131.237489 133.924795a132.250736 132.250736 0 0 1-131.281543 130.532622 132.118573 132.118573 0 1 1-88.593015-231.108381l-38.194999-66.081314a16.608437 16.608437 0 0 0-21.586562-6.608131 232.121627 232.121627 0 0 1-178.860089 9.295438 16.564383 16.564383 0 0 0-19.912503 7.22489l-25.683604 44.494752a16.520328 16.520328 0 0 0 0.792976 17.7979c15.507082 21.894942 24.49414 48.635847 24.273869 77.535408a132.691278 132.691278 0 0 1-131.14938 130.929109 132.250736 132.250736 0 0 1-133.308037-133.616416 132.603169 132.603169 0 0 1 167.934645-125.862875 16.608437 16.608437 0 0 0 18.767093-7.665432l22.423593-38.811759a16.476274 16.476274 0 0 0-2.995686-20.264936 230.88811 230.88811 0 0 1-69.165109-123.043406 16.476274 16.476274 0 0 0-16.256003-13.348425H273.444476a16.520328 16.520328 0 0 0-15.683299 11.454094 132.162627 132.162627 0 1 1-1.982439-88.108418 16.300057 16.300057 0 0 0 15.418973 10.57301H368.293188a16.476274 16.476274 0 0 0 16.211949-13.128154 231.108381 231.108381 0 0 1 86.742737-137.933728 16.652491 16.652491 0 0 0 4.317313-21.498454l-2.246765-3.920825a16.652491 16.652491 0 0 0-17.665738-7.929758 127.669098 127.669098 0 0 1-28.282802 2.555144c-71.808361-1.013247-131.061272-62.028326-130.136134-133.792632A132.074519 132.074519 0 0 1 430.497731 0.006168a132.735332 132.735332 0 0 1 131.14938 130.31235c0.440542 32.600115-10.969498 62.689139-30.265241 85.905708a16.520328 16.520328 0 0 0-1.630006 18.943309l6.784348 11.762474a16.388166 16.388166 0 0 0 18.282497 7.709487c18.062226-4.537584 37.005536-6.916511 56.389387-6.916511 54.01046 0 103.659554 18.502768 143.132126 49.560985 6.608131 5.198397 15.991678 4.669746 21.894941-1.233518l24.978737-24.978736c4.845963-4.845963 6.167589-12.203016 3.392174-18.370605a132.162627 132.162627 0 1 1 61.147242 63.614278 16.784654 16.784654 0 0 0-19.295743 2.995686l-29.340104 29.428211z" fill="#9CA3BB" p-id="5327"></path></svg>